<?xml version="1.0" standalone="no"?>
<!DOCTYPE svg PUBLIC "-//W3C//DTD SVG 20010904//EN"
 "http://www.w3.org/TR/2001/REC-SVG-20010904/DTD/svg10.dtd">
<svg version="1.0" xmlns="http://www.w3.org/2000/svg"
 width="1265.000000pt" height="813.000000pt" viewBox="0 0 1265.000000 813.000000"
 preserveAspectRatio="xMidYMid meet">

<g transform="translate(0.000000,813.000000) scale(0.100000,-0.100000)"
fill="#000000" stroke="none">
<path d="M3485 8029 c-91 -13 -125 -28 -146 -63 -10 -17 -19 -34 -19 -39 0
-13 50 -27 76 -21 32 8 31 22 -2 30 -80 20 109 39 237 23 337 -40 672 -257
720 -466 38 -166 -135 -285 -394 -270 -48 2 -91 8 -95 11 -3 4 -8 65 -10 136
l-4 130 34 0 c76 0 238 -40 238 -59 0 -4 -11 -18 -25 -31 -28 -26 -20 -40 23
-40 31 0 82 52 82 83 0 72 -105 128 -252 135 l-98 5 0 61 c0 61 -23 126 -47
133 -11 4 -30 -87 -36 -166 -2 -31 -6 -36 -37 -43 -127 -31 -226 -82 -236
-124 -12 -48 87 -157 204 -224 34 -20 62 -42 62 -51 0 -9 5 -30 11 -48 10 -28
15 -32 43 -29 24 2 32 8 34 27 3 20 8 22 34 17 134 -27 283 -12 392 37 164 75
223 232 151 401 -87 203 -424 407 -735 446 -95 11 -120 11 -205 -1z m273 -643
c-1 -57 -6 -107 -10 -111 -12 -12 -144 65 -188 110 -40 40 -43 47 -29 60 18
18 125 43 187 44 l44 1 -4 -104z"/>
<path d="M4545 7951 c-60 -27 -102 -67 -120 -115 -15 -39 -15 -46 -1 -81 9
-20 16 -45 16 -54 0 -10 6 -26 14 -36 12 -17 16 -18 31 -5 12 10 41 15 79 15
73 1 129 29 193 98 64 69 67 138 6 153 -14 4 -34 15 -44 25 -25 25 -119 25
-174 0z m34 -64 c-2 -2 -28 -25 -56 -52 -39 -34 -53 -43 -53 -30 0 25 64 85
91 85 12 0 20 -1 18 -3z m171 -30 c0 -34 -28 -67 -74 -88 -41 -19 -126 -26
-126 -11 0 10 76 83 110 106 13 9 39 16 57 16 28 0 33 -4 33 -23z"/>
<path d="M6718 7802 c-50 -6 -24 -42 29 -42 l33 0 0 -240 0 -240 -29 0 c-27 0
-61 -21 -61 -38 0 -9 294 -7 298 2 9 17 -8 28 -51 33 l-47 6 0 238 c0 185 3
239 13 239 35 0 89 -24 108 -48 17 -22 20 -37 17 -80 -5 -60 -31 -95 -85 -114
-24 -9 -33 -18 -33 -34 0 -23 0 -23 53 -8 70 21 131 57 158 96 30 42 38 126
15 161 -32 48 -77 61 -241 67 -82 3 -162 4 -177 2z"/>
<path d="M7235 7801 c-3 -2 0 -12 6 -22 7 -13 21 -19 44 -19 l35 0 0 -240 0
-240 -24 0 c-36 0 -56 -10 -56 -29 0 -14 17 -16 140 -16 126 0 140 2 140 17 0
13 -11 20 -40 24 l-40 7 0 238 0 239 24 0 c36 0 56 10 56 29 0 14 -17 16 -141
16 -77 0 -142 -2 -144 -4z"/>
<path d="M8077 7802 c-84 -2 -98 -5 -93 -18 3 -9 6 -18 6 -20 0 -2 9 -4 20 -4
11 0 20 -2 20 -5 0 -7 -92 -145 -96 -145 -2 0 -26 34 -54 75 -49 73 -50 75
-26 75 15 0 30 8 36 20 10 20 8 20 -130 20 -77 0 -140 -4 -140 -8 0 -14 23
-32 41 -32 15 0 46 -35 166 -187 18 -23 33 -44 33 -48 0 -4 -43 -60 -96 -126
-60 -75 -102 -119 -114 -119 -18 0 -50 -24 -50 -38 0 -4 52 -7 115 -7 102 0
115 2 115 17 0 11 -11 20 -30 25 l-29 8 55 90 c31 50 59 93 63 98 4 4 48 -41
98 -100 135 -160 154 -176 191 -166 l31 8 -84 115 c-47 63 -85 119 -85 124 0
4 -16 30 -35 56 -19 26 -35 51 -35 55 0 4 15 25 33 47 83 99 131 148 149 148
18 0 33 21 26 37 -1 4 -47 7 -101 5z"/>
<path d="M8434 7784 c3 -9 6 -18 6 -20 0 -2 11 -4 25 -4 14 0 25 -2 25 -5 0
-7 -133 -357 -161 -422 -14 -36 -27 -53 -40 -53 -29 0 -49 -11 -49 -29 0 -14
15 -16 115 -16 101 0 115 2 115 17 0 10 -11 19 -30 23 -37 8 -38 20 -8 126 21
77 22 79 52 79 17 0 54 3 81 6 l51 6 16 -53 c9 -30 23 -77 31 -106 l15 -51
-34 -7 c-23 -4 -34 -12 -34 -23 0 -15 15 -17 140 -17 126 0 140 2 140 17 0 11
-10 20 -27 24 -16 3 -33 7 -40 9 -15 5 -42 66 -114 263 -61 169 -70 212 -44
212 8 0 19 9 25 20 10 20 8 20 -126 20 -120 0 -135 -2 -130 -16z m136 -159
c13 -38 25 -76 28 -83 4 -11 -7 -12 -54 -7 -32 4 -61 9 -63 11 -2 2 9 39 25
84 15 44 31 77 35 73 3 -5 17 -39 29 -78z"/>
<path d="M8944 7784 c3 -9 6 -18 6 -20 0 -2 18 -4 39 -4 l40 0 1 -239 1 -238
-40 -7 c-31 -5 -51 -20 -51 -39 0 -1 67 -2 150 -2 111 0 150 3 150 12 0 16
-33 33 -64 33 l-26 0 0 105 0 105 29 0 c20 0 37 -9 55 -31 14 -17 26 -34 26
-37 0 -11 162 -177 191 -196 17 -11 36 -14 57 -10 l32 6 -38 43 c-45 52 -160
211 -175 243 -9 19 -5 28 36 68 92 90 69 187 -49 214 -21 5 -115 10 -208 10
-149 0 -167 -2 -162 -16z m276 -34 c48 -14 85 -68 76 -112 -11 -56 -48 -89
-113 -101 l-33 -6 0 114 c0 128 -2 125 70 105z"/>
<path d="M5285 7668 c-4 -9 5 -60 18 -114 29 -117 38 -182 27 -189 -5 -3 -36
37 -69 88 -33 51 -72 104 -87 118 l-26 24 -18 -23 c-25 -31 -53 -160 -54 -249
-1 -62 2 -76 21 -95 21 -20 24 -21 39 -7 11 12 17 46 21 127 3 61 9 109 14
107 4 -3 26 -40 49 -83 69 -128 112 -158 158 -109 44 47 54 134 28 235 -27
100 -106 210 -121 170z"/>
<path d="M5898 7590 c-60 -70 -90 -136 -96 -210 -2 -37 0 -75 6 -86 7 -14 2
-44 -25 -123 -20 -61 -37 -133 -40 -175 -5 -63 -3 -74 17 -98 26 -34 58 -37
64 -5 16 81 41 177 60 234 22 66 24 68 63 75 128 21 236 139 236 254 0 58 -30
119 -63 129 -40 13 -125 -54 -201 -157 -51 -69 -54 -71 -57 -44 -2 18 12 60
42 119 26 51 46 97 46 104 0 27 -20 21 -52 -17z m228 -105 c11 -46 -23 -113
-74 -146 -44 -28 -82 -38 -82 -21 0 24 123 192 140 192 6 0 12 -11 16 -25z"/>
<path d="M4800 7606 c-115 -27 -150 -54 -150 -116 0 -49 10 -54 120 -64 112
-10 176 -25 194 -45 15 -16 15 -19 -4 -36 -10 -9 -45 -24 -77 -31 -102 -24
-183 -15 -183 21 0 23 46 29 90 11 22 -9 55 -16 73 -16 38 0 73 22 63 38 -13
21 -108 38 -188 33 -37 -1 -68 -34 -68 -70 0 -32 50 -84 99 -103 40 -15 141
-12 187 6 69 28 95 115 53 182 -23 39 -54 49 -170 58 -42 3 -87 10 -100 15
l-24 9 29 11 c16 7 75 16 130 21 129 12 153 18 160 37 9 23 0 31 -55 42 -63
14 -109 13 -179 -3z"/>
<path d="M4529 7583 c-6 -16 -13 -96 -16 -178 -7 -175 -1 -198 50 -193 l32 3
-1 172 c0 143 -3 175 -17 197 -22 33 -35 33 -48 -1z"/>
<path d="M5555 7598 c-85 -13 -88 -14 -75 -38 6 -11 22 -23 35 -26 14 -3 25
-11 25 -18 -1 -31 -15 -58 -37 -67 -19 -7 -22 -14 -17 -33 3 -15 -1 -45 -12
-71 -14 -38 -15 -52 -5 -85 23 -76 80 -89 178 -40 78 39 98 61 83 89 -12 24
-36 26 -109 9 -28 -6 -54 -9 -57 -5 -3 3 -1 22 6 41 11 36 12 36 68 36 68 0
85 9 80 41 -3 21 -9 24 -55 27 -51 3 -53 4 -53 33 l0 29 64 0 c109 0 140 24
93 68 -19 18 -34 22 -88 21 -35 -1 -91 -6 -124 -11z"/>
<path d="M6422 7514 c-12 -8 -22 -24 -22 -34 0 -10 10 -26 22 -34 19 -13 25
-14 43 -2 11 7 20 24 20 36 0 12 -9 29 -20 36 -18 12 -24 11 -43 -2z"/>
<path d="M742 6307 c-13 -14 -22 -31 -21 -38 1 -8 -5 -38 -14 -68 -9 -30 -17
-73 -17 -95 0 -23 -14 -76 -30 -118 -16 -42 -35 -110 -40 -150 -15 -102 4
-373 35 -493 13 -49 30 -133 39 -186 9 -53 25 -128 36 -167 11 -40 20 -85 20
-102 0 -16 22 -119 50 -227 27 -109 58 -252 70 -318 11 -66 30 -163 42 -217
11 -53 18 -103 15 -111 -3 -7 -43 -33 -89 -57 -45 -24 -85 -46 -88 -50 -3 -4
-52 -33 -110 -65 -58 -31 -123 -71 -145 -87 -22 -16 -71 -50 -110 -75 -77 -51
-180 -142 -207 -182 -24 -36 -22 -75 5 -106 l23 -27 104 31 c255 75 435 132
569 180 79 28 146 50 148 48 2 -3 19 -62 38 -133 100 -373 171 -622 184 -645
5 -9 19 -54 31 -100 12 -46 28 -98 36 -115 7 -17 21 -64 29 -105 45 -209 58
-259 66 -259 4 0 5 -7 2 -17 -4 -11 -3 -14 5 -9 7 4 12 1 12 -8 0 -8 3 -23 6
-33 5 -15 4 -16 -6 -3 -9 12 -10 10 -4 -10 4 -14 9 -31 12 -39 3 -9 1 -12 -6
-7 -17 11 -15 -10 4 -28 8 -9 12 -21 8 -27 -5 -8 -3 -9 6 -4 10 6 11 1 6 -21
-4 -19 -3 -24 2 -15 7 9 13 -3 21 -40 7 -30 16 -63 21 -74 17 -43 54 -172 115
-405 20 -74 45 -158 56 -186 11 -28 33 -98 48 -155 44 -161 120 -398 135 -422
8 -12 17 -39 20 -59 4 -21 11 -38 17 -38 9 0 4 39 -17 111 -4 13 -2 19 4 15 6
-3 13 -25 17 -49 9 -48 83 -277 86 -262 1 6 2 15 4 20 1 6 3 16 3 24 1 7 8 11
17 7 8 -3 15 -1 15 5 0 5 -7 12 -15 15 -10 4 -12 10 -6 18 5 6 9 29 8 51 0 22
3 54 7 72 7 32 -3 66 -19 64 -5 -1 -10 4 -11 11 -10 46 -11 52 -7 40 3 -6 9
-12 14 -12 6 0 8 4 5 8 -3 5 -10 29 -15 53 -8 37 -8 41 3 26 8 -9 16 -39 20
-66 3 -27 13 -54 20 -60 8 -7 20 -43 26 -82 7 -38 16 -69 22 -69 5 0 7 8 4 18
-14 48 -36 156 -32 159 6 6 20 -46 41 -147 8 -41 19 -84 25 -95 5 -11 16 -60
24 -109 19 -108 29 -123 25 -37 -2 51 1 65 14 73 24 13 21 31 -3 25 -24 -6
-27 4 -35 127 -3 49 -10 95 -16 102 -7 8 -6 14 3 17 10 4 11 7 1 18 -7 7 -13
18 -13 24 1 23 30 -31 30 -56 0 -44 20 -45 21 -2 l1 38 11 -45 c18 -75 20 -12
3 80 -9 45 -16 87 -16 94 1 13 62 -195 79 -270 8 -32 17 -51 27 -51 8 0 12 7
10 16 -23 82 -49 334 -34 325 13 -8 9 21 -4 34 -9 9 -9 15 0 24 7 7 13 9 13 5
1 -4 2 -10 3 -14 1 -5 6 -39 10 -78 4 -38 12 -74 16 -80 9 -11 25 -76 22 -87
-1 -5 2 -8 7 -8 5 0 11 10 14 23 2 12 7 -7 12 -43 5 -36 11 -57 13 -47 2 11 9
16 18 13 12 -5 13 10 10 92 -4 85 -3 95 9 78 8 -10 17 -39 20 -65 10 -71 16
-73 10 -3 -4 34 -12 79 -19 100 -7 20 -16 55 -20 77 -8 39 -7 39 11 22 11 -9
24 -17 30 -17 6 0 16 -33 22 -72 13 -82 24 -109 34 -83 4 9 3 13 -3 10 -6 -4
-10 6 -10 22 -1 31 -4 61 -26 216 -12 84 -13 112 -4 123 7 7 17 11 23 7 6 -3
7 -1 3 5 -3 6 5 19 19 29 15 10 49 38 77 63 28 25 56 45 62 45 17 0 57 31 49
38 -3 4 0 7 7 7 7 0 19 8 27 18 9 11 12 12 8 2 -4 -8 4 -1 19 15 14 17 25 26
26 22 0 -15 233 154 345 251 331 287 583 575 668 762 14 30 48 107 77 170 79
174 127 306 159 437 16 65 39 152 50 193 45 154 51 178 72 285 18 92 21 131
16 235 -10 197 -48 313 -141 425 -22 28 -58 76 -80 107 -44 66 -127 146 -189
182 -172 100 -567 154 -927 127 -226 -18 -633 -91 -831 -150 -127 -38 -114
-45 -128 67 -7 53 -15 113 -17 132 -2 19 -14 94 -25 165 -12 72 -23 146 -24
165 -2 19 -5 46 -8 60 -2 14 -8 43 -12 65 -10 59 -65 225 -75 225 -4 0 -11 17
-14 38 -13 70 -19 81 -26 42 l-6 -35 -8 30 c-3 17 -14 50 -23 75 -9 25 -18 60
-21 77 -2 18 -8 31 -12 28 -5 -3 -11 4 -15 15 -3 11 -13 20 -20 20 -18 0 -37
35 -42 74 -2 17 -8 33 -14 36 -5 4 -9 11 -7 16 3 12 -19 74 -28 74 -4 0 -4
-17 -1 -37 l6 -38 -18 35 c-10 19 -17 40 -14 47 5 13 -23 93 -36 103 -11 8
-61 89 -61 98 0 18 -43 64 -96 103 -33 24 -53 46 -52 56 2 10 -8 20 -27 26
-16 5 -33 15 -37 21 -4 6 -8 7 -8 3 0 -4 -20 4 -43 18 -24 14 -53 25 -65 25
-14 0 -20 5 -16 14 6 15 -18 23 -106 36 -30 4 -66 11 -80 15 -19 4 -31 0 -48
-18z m2197 -2291 c80 -22 179 -76 226 -121 51 -50 85 -108 119 -203 23 -65 26
-88 26 -213 0 -96 -6 -171 -19 -242 -25 -128 -53 -295 -55 -324 0 -11 -5 -19
-9 -16 -4 2 -5 -7 -1 -21 4 -17 2 -26 -6 -26 -6 0 -9 -4 -5 -9 3 -5 -3 -33
-13 -63 -51 -147 -74 -228 -69 -242 4 -9 2 -15 -4 -13 -6 1 -34 -43 -62 -98
-55 -105 -125 -213 -161 -249 -11 -11 -43 -48 -71 -81 -63 -76 -365 -405 -372
-405 -3 0 14 22 38 48 59 65 123 144 133 162 10 18 -56 -51 -101 -106 -61 -75
-161 -174 -176 -174 -8 0 -18 12 -22 28 -16 60 -46 208 -46 227 0 25 -24 143
-44 215 -30 109 -64 247 -80 330 -48 242 -57 290 -64 350 -11 77 -16 101 -42
195 -12 43 -15 71 -9 73 12 4 13 55 1 67 -12 13 -40 131 -48 198 -3 28 -10 58
-16 65 -10 13 -19 94 -18 165 0 26 -3 36 -11 31 -8 -5 -9 2 -5 26 4 19 2 38
-4 46 -6 8 -9 20 -6 29 4 8 2 17 -2 19 -4 3 -11 38 -14 78 -4 40 -9 94 -13
119 l-6 47 53 15 c108 31 305 65 519 91 81 10 406 -3 459 -18z m921 -706 c-7
-41 -18 -87 -26 -102 -8 -15 -11 -33 -8 -41 3 -8 -2 -17 -10 -20 -9 -4 -16
-14 -16 -23 0 -11 -5 -14 -16 -10 -14 5 -16 1 -10 -25 4 -22 1 -40 -9 -56 -9
-13 -13 -28 -10 -33 3 -5 -1 -12 -8 -17 -14 -8 -31 -42 -29 -55 1 -5 -2 -8 -8
-8 -5 0 -10 -8 -10 -18 0 -10 -7 -27 -15 -38 -12 -16 -12 -10 2 31 9 28 20 53
25 56 4 3 10 18 13 35 2 16 16 67 30 113 14 46 25 93 25 105 0 12 9 39 20 61
11 21 22 55 25 74 4 20 10 43 14 51 5 9 12 36 17 60 l9 45 3 -55 c2 -30 -2
-89 -8 -130z m-239 4 c-6 -32 -11 -81 -11 -109 0 -38 -5 -55 -20 -68 -11 -9
-20 -26 -20 -38 0 -11 -5 -29 -11 -41 -6 -11 -8 -22 -5 -25 3 -4 17 18 31 48
13 30 23 43 20 29 -2 -14 -7 -46 -10 -71 -3 -26 -12 -55 -20 -65 -8 -11 -15
-31 -15 -47 0 -15 -11 -50 -25 -78 -13 -29 -22 -56 -18 -61 3 -6 0 -14 -8 -19
-7 -4 -14 -23 -15 -41 -1 -18 -7 -46 -13 -62 -9 -24 -14 -26 -26 -16 -9 7 -17
11 -18 9 -30 -40 -177 -328 -177 -345 0 -12 19 -1 24 14 7 18 18 38 51 86 10
16 20 35 21 43 3 15 49 107 69 136 8 12 15 15 20 8 3 -6 2 -11 -4 -11 -6 0 -8
-6 -5 -14 3 -7 -9 -38 -27 -67 -18 -30 -33 -64 -34 -76 -3 -23 -51 -109 -66
-119 -13 -8 -11 10 3 24 6 6 9 14 6 17 -3 3 -17 -14 -32 -39 -14 -25 -31 -48
-37 -52 -6 -3 -5 3 3 15 17 28 -2 50 -23 25 -9 -12 -10 -15 -1 -10 6 4 12 2
12 -3 0 -6 -6 -11 -14 -11 -8 0 -16 -10 -20 -22 -3 -13 -17 -36 -32 -53 -18
-22 -21 -23 -10 -5 18 28 21 44 5 35 -7 -5 -7 -2 0 11 16 29 71 151 71 157 0
3 16 32 35 64 19 32 35 62 35 68 0 16 -84 -127 -114 -195 -37 -83 -95 -170
-113 -170 -10 0 -9 5 5 20 11 11 31 45 47 75 15 30 31 55 36 55 5 0 9 9 9 21
0 11 15 51 34 87 18 37 39 79 45 95 6 15 17 27 26 27 8 0 15 5 15 12 0 6 7 19
16 29 15 16 14 17 -5 12 l-22 -6 20 51 c11 29 25 59 30 69 15 27 67 151 100
239 17 44 30 73 30 67 1 -7 -8 -36 -19 -65 -25 -66 -26 -87 -1 -33 26 58 67
190 81 260 16 85 30 126 41 120 5 -4 6 0 4 7 -3 8 1 22 9 33 13 18 14 16 11
-25 -4 -40 -3 -38 13 20 19 75 28 58 13 -26z m185 2 c-6 -19 -12 -33 -14 -31
-7 6 9 65 17 65 5 0 3 -15 -3 -34z m-1829 -208 c-3 -8 -6 -5 -6 6 -1 11 2 17
5 13 3 -3 4 -12 1 -19z m1840 0 c-3 -8 -6 -5 -6 6 -1 11 2 17 5 13 3 -3 4 -12
1 -19z m-12 -48 c-4 -12 -9 -19 -12 -17 -3 3 -2 15 2 27 4 12 9 19 12 17 3 -3
2 -15 -2 -27z m-119 -125 c-14 -46 -23 -90 -20 -99 7 -19 -34 -156 -47 -156
-9 0 -22 -24 -56 -110 -47 -119 -168 -324 -184 -314 -5 3 -9 11 -9 17 0 9 2 9
8 0 5 -7 39 49 90 147 46 88 81 164 78 169 -3 5 3 20 14 34 11 14 20 36 20 49
0 14 9 54 21 89 21 64 37 95 26 50 -3 -13 -2 -20 3 -15 7 8 38 135 44 184 1 8
8 25 14 37 7 12 13 32 14 45 1 14 3 9 5 -11 3 -19 -6 -69 -21 -116z m-209 113
c-3 -8 -6 -5 -6 6 -1 11 2 17 5 13 3 -3 4 -12 1 -19z m313 -46 c0 -9 -9 -23
-19 -29 -19 -12 -19 -12 -3 17 20 35 22 36 22 12z m-13 -136 c-3 -8 -11 -32
-16 -53 -6 -21 -15 -45 -20 -53 -9 -12 -11 -12 -16 2 -7 18 10 84 28 106 13
17 30 15 24 -2z m-75 -168 c-7 -7 -12 -8 -12 -2 0 6 3 14 7 17 3 4 9 5 12 2 2
-3 -1 -11 -7 -17z m-538 -102 c-9 -26 -18 -45 -21 -42 -3 3 3 25 12 51 10 25
19 44 21 42 2 -2 -3 -25 -12 -51z m497 -7 c-5 -13 -10 -19 -10 -12 -1 15 10
45 15 40 3 -2 0 -15 -5 -28z m-62 -161 c-26 -52 -90 -158 -96 -158 -2 0 5 17
16 38 20 40 21 42 21 70 0 16 70 102 78 96 2 -1 -6 -22 -19 -46z m-501 -3 c-6
-14 -15 -25 -20 -25 -5 0 -1 11 8 25 9 14 18 25 20 25 2 0 -2 -11 -8 -25z
m-12 -152 c-8 -16 -22 -36 -32 -44 -20 -16 -17 -8 15 44 27 43 40 43 17 0z
m284 -47 c0 -2 -8 -10 -17 -17 -16 -13 -17 -12 -4 4 13 16 21 21 21 13z m90
-19 c0 -2 -10 -12 -22 -23 l-23 -19 19 23 c18 21 26 27 26 19z m-120 -21 c0
-2 -8 -10 -17 -17 -16 -13 -17 -12 -4 4 13 16 21 21 21 13z m-270 -30 c0 -2
-8 -10 -17 -17 -16 -13 -17 -12 -4 4 13 16 21 21 21 13z m42 -326 c-39 -38
-78 -70 -87 -70 -8 0 -14 -5 -12 -11 1 -6 -6 -13 -16 -14 -18 -3 -18 -3 -1 16
9 10 22 19 28 19 7 0 27 17 46 37 19 20 28 33 20 28 -22 -12 -10 -1 40 39 69
55 61 33 -18 -44z m-475 -421 c-37 -33 -65 -64 -63 -68 3 -4 -1 -8 -9 -8 -27
0 -16 15 55 77 92 78 105 78 17 -1z m-97 -32 c0 -2 -10 -12 -22 -23 l-23 -19
19 23 c18 21 26 27 26 19z m110 -41 c0 -2 -8 -10 -17 -17 -16 -13 -17 -12 -4
4 13 16 21 21 21 13z m-423 -318 c-3 -7 -5 -2 -5 12 0 14 2 19 5 13 2 -7 2
-19 0 -25z m-72 -177 c3 -5 1 -12 -5 -16 -5 -3 -10 1 -10 9 0 18 6 21 15 7z
m2 -63 c-3 -8 -6 -5 -6 6 -1 11 2 17 5 13 3 -3 4 -12 1 -19z m200 -70 c-3 -7
-5 -2 -5 12 0 14 2 19 5 13 2 -7 2 -19 0 -25z m-385 -30 c2 -15 7 -30 11 -34
13 -13 7 -33 -8 -28 -8 4 -13 10 -10 14 3 5 1 20 -5 35 -6 15 -7 31 -4 37 8
13 12 7 16 -24z m20 -90 c-7 -7 -12 -21 -12 -32 0 -10 -3 -17 -6 -13 -10 10 5
57 18 57 9 0 9 -3 0 -12z"/>
<path d="M2027 3896 c-4 -27 -7 -65 -8 -85 l-1 -36 -8 33 c-16 67 -25 59 -34
-31 -6 -70 28 -357 45 -367 4 -3 13 -44 19 -90 24 -177 30 -216 39 -261 6 -26
12 -67 15 -90 15 -126 26 -226 27 -244 0 -18 1 -18 9 3 5 12 13 22 18 22 4 0
7 17 5 38 -2 25 0 31 5 19 4 -10 12 -18 16 -17 5 1 13 -4 18 -12 10 -14 9 -10
-18 62 -7 19 -13 54 -14 77 0 23 -5 45 -10 48 -6 4 -8 10 -5 15 5 8 -7 116
-30 265 -24 156 -27 192 -16 200 15 8 13 93 -2 129 -11 25 -12 20 -10 -50 2
-69 1 -75 -9 -46 -13 39 -28 42 -29 5 0 -16 -3 -22 -6 -14 -3 7 0 31 8 53 11
35 10 51 -10 140 -12 55 -20 102 -17 106 3 3 6 -1 6 -8 0 -9 3 -10 9 -4 5 5 6
50 2 99 -6 86 -7 88 -14 41z"/>
<path d="M2130 3314 c0 -19 4 -33 8 -30 8 5 4 66 -4 66 -2 0 -4 -16 -4 -36z"/>
<path d="M3047 2472 c-15 -38 -63 -121 -111 -194 -10 -16 -16 -28 -14 -28 8 0
94 133 123 189 14 29 24 58 22 64 -2 6 -11 -8 -20 -31z"/>
<path d="M2170 2475 c0 -5 5 -17 10 -25 5 -8 10 -10 10 -5 0 6 -5 17 -10 25
-5 8 -10 11 -10 5z"/>
<path d="M2220 2271 c0 -6 4 -13 10 -16 6 -3 7 1 4 9 -7 18 -14 21 -14 7z"/>
<path d="M2815 2118 c-33 -40 -86 -101 -119 -135 -32 -35 -56 -63 -53 -63 12
0 161 165 210 231 46 62 26 45 -38 -33z"/>
<path d="M2301 2015 c-1 -5 6 -30 13 -55 8 -25 15 -36 15 -24 1 12 -6 37 -14
55 -8 19 -14 30 -14 24z"/>
<path d="M2341 1974 c0 -11 3 -14 6 -6 3 7 2 16 -1 19 -3 4 -6 -2 -5 -13z"/>
<path d="M2301 1903 c-1 -17 4 -35 9 -38 12 -7 12 22 0 50 -7 17 -9 15 -9 -12z"/>
<path d="M2342 1730 c0 -14 2 -19 5 -12 2 6 2 18 0 25 -3 6 -5 1 -5 -13z"/>
<path d="M3572 3175 c0 -16 2 -22 5 -12 2 9 2 23 0 30 -3 6 -5 -1 -5 -18z"/>
<path d="M3528 2963 c-22 -49 -32 -93 -22 -93 1 0 11 15 22 33 18 29 40 117
29 117 -2 0 -16 -26 -29 -57z"/>
<path d="M3651 2824 c0 -11 3 -14 6 -6 3 7 2 16 -1 19 -3 4 -6 -2 -5 -13z"/>
<path d="M5840 5814 c-488 -33 -788 -78 -1015 -151 -100 -32 -155 -59 -155
-77 0 -14 -56 -56 -102 -77 -15 -7 -30 -19 -33 -28 -5 -17 -57 -48 -89 -53
-11 -2 -21 -9 -24 -15 -2 -9 10 -13 40 -14 24 -1 53 -3 66 -4 25 -3 123 18
143 31 14 8 39 8 544 -6 554 -15 781 -37 859 -84 56 -33 164 -144 227 -231 32
-44 67 -92 78 -106 36 -46 55 -152 85 -454 7 -71 11 -133 9 -137 -2 -5 -44 -8
-93 -8 -144 0 -284 -19 -460 -61 -255 -62 -238 -56 -526 -191 -112 -53 -223
-113 -270 -147 -131 -94 -316 -255 -388 -338 -158 -182 -314 -431 -335 -534
-5 -24 -21 -82 -36 -129 -24 -72 -28 -103 -29 -206 l-1 -120 44 -87 c34 -69
56 -98 105 -140 113 -98 226 -162 438 -245 107 -43 335 -109 378 -110 8 -1 29
-3 45 -6 17 -3 102 -13 190 -22 142 -16 190 -16 449 -6 159 7 290 11 291 9 4
-4 15 -213 15 -286 0 -61 3 -72 15 -67 8 3 15 0 16 -7 0 -7 2 -37 4 -67 1 -30
7 -89 13 -130 6 -41 15 -122 21 -179 7 -57 14 -108 17 -112 3 -5 7 -28 10 -51
5 -43 18 -67 27 -51 2 4 1 35 -4 68 -5 33 -6 191 -4 350 4 239 9 306 25 380
11 50 17 70 14 45 -3 -25 -7 -122 -10 -216 -3 -133 -1 -177 10 -198 13 -25 14
-25 19 -6 3 11 1 23 -4 26 -5 3 -7 9 -4 14 3 5 8 39 10 77 7 82 12 135 25 228
5 39 9 79 10 89 0 11 3 16 6 13 4 -4 8 -80 9 -169 1 -90 6 -185 10 -213 4 -27
7 -76 7 -107 0 -32 4 -58 9 -58 5 0 9 13 9 29 0 17 4 32 9 35 10 7 23 -66 15
-87 -3 -9 0 -25 6 -37 16 -29 34 -12 22 21 -5 13 -8 85 -7 159 3 246 6 296 15
275 4 -11 5 -42 2 -69 -4 -41 -2 -51 14 -63 17 -13 19 -30 22 -190 2 -113 7
-172 13 -163 5 8 9 35 9 60 1 25 9 79 18 120 15 65 20 75 40 77 21 3 28 -13
23 -54 -1 -6 3 -14 9 -18 5 -3 10 0 11 7 0 7 2 28 5 45 2 18 0 33 -6 33 -12 0
-3 114 10 118 5 2 10 12 10 23 0 10 5 19 10 19 6 0 10 -9 10 -20 0 -11 5 -20
10 -20 6 0 10 -24 10 -54 0 -46 -3 -54 -21 -59 -12 -3 -18 -10 -14 -17 4 -6
14 -9 22 -6 15 6 15 7 -7 -154 -17 -125 -21 -192 -12 -186 5 3 15 51 22 106 7
55 16 100 20 100 4 0 11 26 14 57 13 118 17 132 32 126 8 -3 14 1 14 8 0 11 3
11 10 -1 5 -8 10 -28 10 -43 0 -16 4 -26 9 -22 6 3 8 27 5 53 -12 125 -13 152
-5 152 5 0 12 10 16 23 l8 22 4 -22 c2 -13 9 -23 15 -23 6 0 9 3 5 6 -3 4 0
22 8 42 8 19 20 64 26 101 6 36 12 73 14 81 2 8 4 26 4 40 2 41 15 51 87 66
87 18 283 81 394 128 67 28 87 33 99 23 12 -10 13 -9 6 3 -20 36 -27 41 -39
26 -11 -15 -88 -47 -211 -88 -56 -18 -275 -68 -302 -68 -18 0 -16 37 7 160 11
58 24 130 30 160 13 79 46 357 66 560 10 108 23 184 32 199 10 16 10 21 1 16
-9 -6 -10 -2 -5 16 15 55 19 82 10 76 -14 -8 -5 118 12 178 8 27 19 126 24
220 5 93 12 215 15 270 3 55 8 145 11 200 5 101 17 249 35 450 12 132 5 237
-22 324 -25 83 -132 294 -174 346 -59 73 -179 190 -230 226 -108 76 -332 177
-444 199 -212 44 -268 52 -396 54 -77 2 -165 2 -195 0z m647 -1926 c-2 -106
-10 -229 -16 -273 -27 -188 -38 -320 -28 -339 15 -30 -15 -345 -40 -421 -4
-11 -6 -23 -5 -26 1 -4 -3 -22 -9 -40 -6 -19 -16 -56 -24 -84 -7 -27 -17 -58
-20 -67 -4 -10 -3 -18 3 -18 6 0 14 9 17 21 13 41 13 11 0 -91 -8 -58 -16
-136 -20 -174 -7 -89 -15 -98 -15 -18 0 50 -3 60 -15 56 -9 -4 -15 -1 -15 7 0
9 -3 10 -10 3 -7 -7 -7 -32 -1 -75 5 -35 8 -93 7 -127 l-1 -64 -177 2 c-281 2
-497 37 -734 121 -239 84 -417 201 -466 307 -35 74 -18 269 37 422 47 134 57
156 113 239 71 108 199 235 355 353 102 76 138 97 217 125 52 19 142 59 200
90 58 30 133 66 168 79 35 13 103 44 150 69 81 41 274 111 316 114 17 1 18 -8
13 -191z m423 -2 c0 -8 -4 -18 -10 -21 -5 -3 -10 3 -10 14 0 12 5 21 10 21 6
0 10 -6 10 -14z m-227 -377 c-5 -18 -14 -34 -21 -37 -17 -5 -15 17 3 35 20 19
11 30 -10 13 -13 -11 -15 -9 -15 10 0 13 3 20 7 17 8 -8 32 38 35 67 1 11 3 0
5 -26 2 -25 0 -61 -4 -79z m388 -205 c-9 -28 -9 -29 -10 -3 -1 14 2 29 6 32
11 12 13 2 4 -29z m-441 -77 c0 -12 -7 -42 -14 -67 l-15 -45 0 41 c-1 55 9
105 20 98 5 -3 9 -15 9 -27z m21 -104 c-12 -20 -14 -14 -5 12 4 9 9 14 11 11
3 -2 0 -13 -6 -23z m-51 -93 c0 -11 -4 -20 -9 -20 -5 0 -7 9 -4 20 3 11 7 20
9 20 2 0 4 -9 4 -20z m-16 -117 c-8 -50 -14 -55 -14 -11 0 30 6 48 17 48 1 0
0 -17 -3 -37z m-17 -85 c-3 -7 -5 -2 -5 12 0 14 2 19 5 13 2 -7 2 -19 0 -25z
m-14 -78 c-3 -12 -8 -19 -11 -16 -5 6 5 36 12 36 2 0 2 -9 -1 -20z m3 -280
l-15 -75 6 75 c5 70 4 74 -11 55 -8 -11 -16 -15 -16 -8 0 6 6 18 14 25 7 8 17
30 22 49 l9 34 3 -40 c1 -22 -4 -74 -12 -115z m480 -32 c-11 -94 -18 -120 -28
-110 -8 8 7 146 19 165 12 20 15 1 9 -55z m-569 -80 c-3 -7 -5 -2 -5 12 0 14
2 19 5 13 2 -7 2 -19 0 -25z m515 -340 c-8 -8 -9 -4 -5 13 4 13 8 18 11 10 2
-7 -1 -18 -6 -23z m-528 7 c-4 -8 -8 -15 -10 -15 -2 0 -4 7 -4 15 0 8 4 15 10
15 5 0 7 -7 4 -15z m63 -7 c-3 -8 -6 -5 -6 6 -1 11 2 17 5 13 3 -3 4 -12 1
-19z m453 -75 c0 -5 -4 -15 -10 -23 -11 -18 -25 -7 -17 15 6 15 27 21 27 8z
m-20 -82 c-6 -12 -15 -21 -20 -21 -5 0 -1 13 8 30 19 32 30 24 12 -9z m-120
20 c0 -5 -6 -14 -14 -20 -11 -9 -16 -9 -21 0 -4 6 -1 15 6 20 18 11 29 11 29
0z m-20 -54 c0 -8 -9 -24 -20 -37 -16 -18 -20 -20 -20 -7 0 10 4 17 9 17 5 0
13 9 16 20 7 23 15 26 15 7z m-97 -172 c-3 -9 -8 -14 -10 -11 -3 3 -2 9 2 15
9 16 15 13 8 -4z"/>
<path d="M6314 2658 c-6 -32 -7 -58 -2 -58 11 0 20 42 16 81 -3 30 -4 27 -14
-23z"/>
<path d="M6336 2551 c-12 -19 -19 -101 -9 -101 6 0 13 23 17 51 7 51 4 70 -8
50z"/>
<path d="M6290 2510 c0 -5 5 -10 10 -10 6 0 10 5 10 10 0 6 -4 10 -10 10 -5 0
-10 -4 -10 -10z"/>
<path d="M10150 5189 c-49 -42 -103 -77 -147 -93 -146 -56 -471 -126 -863
-186 -258 -40 -404 -80 -623 -170 -274 -113 -350 -168 -563 -405 -44 -50 -98
-115 -120 -145 -21 -30 -50 -66 -63 -80 -33 -35 -104 -187 -138 -295 -27 -88
-27 -96 -27 -330 l0 -240 42 -158 c49 -187 85 -276 159 -399 176 -292 368
-483 696 -693 73 -46 137 -88 142 -93 40 -32 197 -111 342 -171 95 -39 175
-71 178 -71 3 0 46 -16 95 -35 78 -30 489 -143 642 -175 80 -17 567 -24 717
-11 198 18 547 90 586 121 6 4 48 24 95 45 106 46 164 82 262 163 128 105 211
217 302 405 82 169 114 314 128 582 17 307 17 300 -42 465 -65 179 -103 256
-191 386 -38 56 -69 105 -69 109 0 28 -199 260 -377 440 -248 251 -329 325
-403 364 -65 35 -196 143 -244 200 -35 41 -72 111 -84 156 -13 47 -27 30 -34
-40 -10 -97 0 -179 29 -250 31 -74 125 -200 209 -281 35 -34 64 -65 64 -71 0
-5 28 -38 63 -74 93 -95 145 -162 178 -226 27 -53 49 -91 128 -223 23 -39 95
-244 131 -375 28 -103 39 -249 29 -385 -23 -332 -58 -471 -163 -643 -72 -120
-80 -133 -107 -168 -14 -19 -28 -42 -32 -51 -13 -36 -155 -139 -272 -198 -158
-80 -286 -115 -506 -140 -300 -34 -465 -26 -714 36 -423 106 -734 291 -954
569 -124 157 -148 194 -202 316 -129 288 -172 509 -143 727 25 180 109 407
193 521 109 148 215 271 234 271 6 0 26 12 46 27 52 40 392 217 511 267 117
48 263 89 402 112 171 29 479 103 574 139 62 23 224 123 224 138 0 4 11 25 24
46 29 45 37 77 18 73 -10 -2 -10 2 -2 18 8 16 8 20 -2 18 -7 -2 -16 -7 -20
-13 -13 -18 -20 3 -7 26 17 32 22 86 9 94 -6 3 -10 3 -9 -2 1 -4 -2 -21 -6
-38 l-9 -30 -7 25 c-6 24 -7 24 -24 -15 -9 -22 -27 -48 -40 -58 l-24 -17 15
36 c13 31 13 36 1 31 -13 -5 -13 1 -2 38 8 24 11 53 8 65 l-6 21 -13 -23 c-7
-13 -18 -33 -23 -45 -15 -32 -33 -40 -21 -9 14 39 -2 31 -29 -14 -14 -22 -27
-37 -30 -35 -2 3 1 11 7 17 15 15 16 31 1 22 -9 -5 -10 1 -5 20 7 30 -15 46
-38 27 -7 -6 -16 -8 -19 -4 -6 6 -9 -4 -6 -23 1 -8 -22 -24 -33 -24 -4 0 1 16
12 35 11 20 20 46 20 58 -1 22 -1 21 -15 -3 l-15 -25 6 28 c3 15 5 27 3 27 -2
0 -20 -14 -39 -31z m105 -78 c-3 -6 -11 -11 -16 -11 -5 0 -4 6 3 14 14 16 24
13 13 -3z m-2027 -856 c-6 -14 -15 -25 -19 -25 -4 0 -23 -21 -41 -47 -17 -26
-38 -54 -45 -63 -7 -8 -28 -37 -48 -65 -19 -27 -35 -46 -35 -41 0 13 49 96 71
121 10 11 41 48 69 83 55 67 66 76 48 37z m-197 -282 c-12 -20 -14 -14 -5 12
4 9 9 14 11 11 3 -2 0 -13 -6 -23z m-41 -63 c-6 -11 -13 -20 -16 -20 -2 0 0 9
6 20 6 11 13 20 16 20 2 0 0 -9 -6 -20z m3997 -1002 c-3 -7 -5 -2 -5 12 0 14
2 19 5 13 2 -7 2 -19 0 -25z m-450 -190 c-2 -13 -4 -3 -4 22 0 25 2 35 4 23 2
-13 2 -33 0 -45z m39 4 c-12 -11 -18 7 -10 30 l8 23 4 -23 c2 -13 1 -26 -2
-30z m-49 -79 c-3 -10 -5 -4 -5 12 0 17 2 24 5 18 2 -7 2 -21 0 -30z m-158
-180 c-6 -32 -14 -52 -16 -45 -4 10 -8 10 -20 1 -8 -7 -3 9 11 36 14 26 26 55
26 63 0 9 3 13 6 9 3 -3 0 -32 -7 -64z m101 -97 c-4 -21 -7 -54 -5 -74 2 -19
0 -30 -4 -23 -6 10 -10 9 -14 -3 -3 -8 -2 -18 3 -21 6 -4 10 -12 10 -18 0 -7
-4 -6 -11 3 -8 12 -9 10 -4 -8 4 -15 1 -24 -10 -28 -9 -4 -14 -13 -11 -20 3
-8 1 -14 -4 -14 -6 0 -10 -9 -10 -21 0 -11 -4 -18 -9 -15 -4 3 -20 -19 -36
-49 -30 -61 -63 -98 -50 -56 5 18 4 22 -5 16 -9 -5 -11 -4 -6 4 4 6 11 9 16 6
9 -6 40 38 45 64 2 10 15 41 29 69 14 28 27 65 28 84 1 18 9 47 18 63 9 17 20
43 24 59 10 42 16 27 6 -18z m-126 20 c-3 -8 -12 -17 -20 -20 -11 -4 -12 -2
-1 14 14 23 29 27 21 6z m140 -153 c-6 -25 -24 -56 -24 -41 0 10 22 68 26 68
2 0 1 -12 -2 -27z m-271 -97 c-3 -13 -21 -39 -40 -57 l-36 -34 38 58 c21 31
39 57 40 57 1 0 0 -11 -2 -24z m210 -41 c-3 -9 -8 -14 -10 -11 -3 3 -2 9 2 15
9 16 15 13 8 -4z m-223 -29 c0 -2 -8 -10 -17 -17 -16 -13 -17 -12 -4 4 13 16
21 21 21 13z m110 -116 c-6 -11 -16 -20 -22 -20 -6 0 -3 9 7 20 10 11 20 20
22 20 2 0 -1 -9 -7 -20z m-43 -23 c0 -8 -6 -14 -14 -14 -9 0 -10 4 -2 14 6 7
12 13 14 13 1 0 2 -6 2 -13z m-282 -42 c-16 -14 -34 -25 -39 -25 -6 0 5 11 24
25 43 32 54 32 15 0z m226 -22 c-5 -10 -33 -38 -62 -63 -28 -25 -59 -52 -68
-61 -9 -9 -32 -24 -51 -33 -34 -16 -34 -16 -10 1 13 10 45 37 70 59 85 79 125
113 128 114 1 0 -2 -8 -7 -17z m-566 -163 c-11 -5 -31 -9 -45 -9 -23 0 -23 1
-5 9 11 5 31 9 45 9 23 0 23 -1 5 -9z m335 -20 c-8 -5 -19 -10 -25 -10 -5 0
-3 5 5 10 8 5 20 10 25 10 6 0 3 -5 -5 -10z"/>
<path d="M10515 5090 c-3 -5 -1 -10 4 -10 6 0 11 5 11 10 0 6 -2 10 -4 10 -3
0 -8 -4 -11 -10z"/>
<path d="M1902 4500 c0 -19 2 -27 5 -17 2 9 2 25 0 35 -3 9 -5 1 -5 -18z"/>
<path d="M10087 4411 c-28 -15 -98 -53 -154 -84 -105 -58 -317 -132 -463 -163
-41 -8 -76 -17 -78 -18 -2 -2 29 -13 68 -25 110 -34 181 -37 277 -12 45 12 90
21 102 21 21 0 110 45 173 87 20 14 70 69 111 122 l75 98 -29 1 c-16 0 -53
-12 -82 -27z"/>
<path d="M10355 4405 c-17 -50 -29 -72 -97 -181 -151 -240 -237 -349 -369
-467 -175 -157 -271 -225 -388 -272 l-53 -22 79 -10 c66 -9 94 -7 159 7 82 17
228 74 300 116 58 34 196 181 236 251 54 96 138 301 162 395 20 80 19 112 -4
163 -15 35 -19 37 -25 20z"/>
<path d="M10470 4186 c0 -125 58 -385 107 -481 30 -57 123 -143 177 -164 28
-11 69 -28 91 -39 51 -25 130 -38 140 -23 3 6 -15 38 -42 70 -143 176 -292
416 -328 530 -15 47 -74 137 -109 164 l-36 28 0 -85z"/>
<path d="M6623 1645 c0 -27 2 -38 4 -22 2 15 2 37 0 50 -2 12 -4 0 -4 -28z"/>
<path d="M6956 1681 c-4 -7 -5 -15 -2 -18 9 -9 19 4 14 18 -4 11 -6 11 -12 0z"/>
<path d="M6795 1578 c-4 -10 -4 -26 0 -35 8 -17 8 -17 12 0 3 9 3 25 0 35 -4
16 -4 16 -12 0z"/>
<path d="M6918 1575 c-8 -8 2 -45 13 -45 10 0 10 8 0 33 -3 10 -9 15 -13 12z"/>
<path d="M6285 1510 c-3 -5 1 -10 9 -10 9 0 16 5 16 10 0 6 -4 10 -9 10 -6 0
-13 -4 -16 -10z"/>
<path d="M6748 1514 c-8 -8 3 -44 13 -44 5 0 9 11 9 25 0 24 -10 32 -22 19z"/>
<path d="M6881 1504 c0 -11 3 -14 6 -6 3 7 2 16 -1 19 -3 4 -6 -2 -5 -13z"/>
<path d="M6450 1465 c0 -25 5 -45 10 -45 6 0 10 20 10 45 0 25 -4 45 -10 45
-5 0 -10 -20 -10 -45z"/>
<path d="M6296 1463 c3 -16 6 -35 7 -43 2 -9 6 -20 9 -25 3 -6 9 -31 12 -57 4
-27 12 -48 18 -48 13 0 3 87 -18 153 -17 51 -35 64 -28 20z"/>
<path d="M11590 1322 c-107 -1 -198 -6 -203 -11 -5 -5 -25 -5 -45 0 -56 12
-68 0 -75 -78 -9 -109 -14 -1011 -6 -1043 2 -8 15 -25 28 -37 23 -20 37 -22
165 -25 78 -2 143 0 146 3 3 3 32 3 64 -1 72 -8 109 -5 115 11 2 8 5 8 10 1 4
-7 63 -11 161 -11 85 0 208 0 273 0 78 -1 117 3 117 10 0 6 7 9 15 5 8 -3 15
-1 15 5 0 5 8 9 18 7 10 -2 17 3 17 12 0 8 4 18 8 21 10 7 17 902 7 1027 -4
50 -10 95 -14 100 -8 7 -443 9 -816 4z m550 -72 c6 -24 8 -24 87 -21 77 2 84
1 108 -23 23 -23 25 -32 25 -109 0 -142 -22 -171 -131 -172 -42 0 -62 4 -69
15 -14 22 2 32 66 41 31 4 61 14 65 21 5 7 9 43 9 79 l0 67 -47 4 c-26 2 -62
2 -80 0 -33 -4 -33 -4 -34 -61 -1 -113 -41 -161 -136 -161 l-43 0 -1 -102 c-6
-548 -6 -558 -24 -600 -8 -21 -28 -29 -45 -18 -10 6 -10 21 -2 69 11 60 10
286 -3 652 -9 248 5 288 105 290 68 1 95 12 98 38 5 31 44 25 52 -9z m-524 5
c14 -9 53 -15 115 -17 93 -3 94 -3 94 -28 l0 -25 -110 4 c-60 2 -115 7 -120
12 -6 4 -30 2 -54 -7 -27 -9 -70 -14 -115 -12 -68 3 -71 4 -71 28 0 24 2 25
90 31 50 3 99 11 110 17 27 15 37 15 61 -3z m-309 -102 c-3 -10 -5 -4 -5 12 0
17 2 24 5 18 2 -7 2 -21 0 -30z m470 -9 c27 -5 39 -43 24 -72 -6 -11 -25 -22
-42 -26 -51 -10 -279 -7 -300 4 -22 12 -27 74 -6 87 27 18 249 23 324 7z
m-389 -27 c6 -7 12 -30 14 -52 5 -60 26 -67 181 -60 166 7 198 2 220 -37 24
-42 21 -73 -10 -97 -24 -20 -38 -21 -194 -20 -162 0 -209 -7 -209 -32 0 -20
54 -29 148 -23 163 11 297 -23 279 -71 -8 -19 -22 -18 -96 10 -35 13 -76 16
-190 14 -158 -2 -186 4 -197 45 -10 40 0 68 29 90 26 19 43 21 204 23 97 2
178 5 181 7 2 3 2 12 -1 21 -5 13 -34 15 -193 15 -166 0 -188 2 -200 18 -14
17 -19 117 -8 146 7 19 28 21 42 3z m-58 -121 c0 -3 -4 -8 -10 -11 -5 -3 -10
-1 -10 4 0 6 5 11 10 11 6 0 10 -2 10 -4z m965 -151 c11 -2 29 -19 40 -37 19
-31 20 -50 19 -301 -1 -272 -4 -297 -38 -284 -13 5 -16 26 -16 119 l0 113
-141 3 c-78 1 -146 5 -150 8 -5 3 -9 13 -9 23 0 23 51 31 196 31 l104 0 0 43
0 42 -136 -1 c-115 -1 -139 2 -157 16 -18 15 -19 20 -8 34 11 13 36 16 141 16
71 0 135 3 144 6 19 7 22 84 4 102 -8 8 -55 12 -142 12 -72 0 -137 4 -144 9
-8 5 -12 17 -10 27 2 14 15 20 48 25 47 6 220 2 255 -6z m-887 -163 c4 -24 9
-25 100 -16 48 5 63 11 67 25 9 27 34 23 45 -6 5 -14 14 -25 20 -25 15 0 12
-38 -5 -47 -10 -6 -15 -33 -17 -103 l-3 -95 -125 0 -125 0 -3 103 c-2 94 -4
102 -22 102 -13 0 -20 7 -20 20 0 13 7 20 20 20 13 0 20 7 20 18 0 39 43 43
48 4z m358 17 c47 -12 74 -39 74 -76 0 -27 -35 -53 -71 -53 -15 0 -37 -9 -50
-19 -23 -18 -24 -26 -27 -170 -3 -116 -7 -153 -18 -162 -9 -7 -18 -8 -23 -3
-5 5 -5 77 -1 159 8 176 22 220 73 230 56 11 67 16 67 30 0 17 -22 25 -70 25
-41 0 -55 11 -46 35 6 18 32 19 92 4z m50 -163 c16 -12 19 -26 18 -100 -1 -91
-4 -102 -29 -93 -11 5 -15 23 -15 77 0 66 -12 92 -24 52 -9 -28 -11 -186 -2
-200 4 -7 18 -12 31 -12 28 0 38 -12 29 -34 -4 -11 -19 -16 -50 -16 -61 0 -67
15 -62 167 3 122 4 125 31 149 32 28 46 30 73 10z m-203 -155 c5 -1 7 -11 5
-23 -2 -17 -12 -24 -33 -28 -24 -4 -30 -10 -30 -30 0 -20 6 -26 30 -30 22 -4
30 -11 30 -25 0 -17 -8 -20 -48 -23 -51 -3 -51 -3 -62 61 -4 23 -11 37 -20 37
-8 0 -15 -1 -15 -2 -1 -2 -3 -21 -6 -43 -7 -44 -9 -48 -27 -51 -82 -15 -95
-15 -102 -5 -10 17 11 38 45 45 24 4 30 11 30 31 0 21 -5 25 -27 25 -37 0 -56
13 -51 36 3 16 15 20 73 24 58 4 178 5 208 1z m487 -121 c0 -5 -2 -10 -4 -10
-3 0 -8 5 -11 10 -3 6 -1 10 4 10 6 0 11 -4 11 -10z m147 -43 c-6 -19 -23 -18
-24 2 -1 14 3 18 13 14 8 -3 13 -10 11 -16z"/>
<path d="M11950 1130 c-6 -11 -10 -46 -8 -78 l3 -57 52 0 c29 1 58 6 65 13 8
8 13 39 13 75 l0 62 -57 3 c-49 3 -58 0 -68 -18z"/>
<path d="M11575 1113 c-64 -4 -90 -17 -65 -33 17 -11 189 -14 214 -4 25 10 19
34 -8 34 -13 0 -36 2 -52 3 -16 2 -56 2 -89 0z"/>
<path d="M11410 600 c0 -11 4 -12 80 -12 79 1 80 1 80 12 0 6 -33 10 -80 10
-47 0 -80 -4 -80 -10z"/>
<path d="M11437 543 c-16 -3 -26 -10 -24 -16 4 -12 126 -14 156 -2 14 5 14 7
1 15 -15 10 -80 11 -133 3z"/>
<path d="M11422 472 c-22 -7 -13 -19 20 -26 43 -9 130 4 125 18 -4 11 -118 17
-145 8z"/>
<path d="M6340 1253 c0 -13 5 -23 10 -23 13 0 13 11 0 30 -8 12 -10 11 -10 -7z"/>
<path d="M2412 890 c0 -19 2 -27 5 -17 2 9 2 25 0 35 -3 9 -5 1 -5 -18z"/>
<path d="M2300 681 c0 -5 5 -13 10 -16 6 -3 10 -2 10 4 0 5 -4 13 -10 16 -5 3
-10 2 -10 -4z"/>
<path d="M1890 646 c0 -8 5 -18 10 -21 6 -3 10 3 10 14 0 12 -4 21 -10 21 -5
0 -10 -6 -10 -14z"/>
<path d="M2310 631 c0 -25 6 -27 13 -6 4 8 2 17 -3 20 -6 4 -10 -3 -10 -14z"/>
<path d="M2156 615 c4 -8 8 -15 10 -15 2 0 4 7 4 15 0 8 -4 15 -10 15 -5 0 -7
-7 -4 -15z"/>
<path d="M2167 584 c-4 -4 -7 -17 -7 -28 1 -19 1 -20 11 -3 11 19 8 43 -4 31z"/>
<path d="M2190 580 c0 -5 5 -10 11 -10 5 0 7 5 4 10 -3 6 -8 10 -11 10 -2 0
-4 -4 -4 -10z"/>
<path d="M2050 560 c0 -5 7 -10 16 -10 8 0 12 5 9 10 -3 6 -10 10 -16 10 -5 0
-9 -4 -9 -10z"/>
<path d="M2282 545 c0 -21 25 -107 27 -90 0 6 -6 33 -13 60 -8 28 -14 41 -14
30z"/>
<path d="M2261 534 c0 -11 3 -14 6 -6 3 7 2 16 -1 19 -3 4 -6 -2 -5 -13z"/>
<path d="M2077 521 c-4 -17 -3 -21 5 -13 5 5 8 16 6 23 -3 8 -7 3 -11 -10z"/>
<path d="M2271 484 c0 -11 3 -14 6 -6 3 7 2 16 -1 19 -3 4 -6 -2 -5 -13z"/>
<path d="M1985 443 c8 -31 13 -39 20 -31 9 9 -6 58 -17 58 -6 0 -7 -11 -3 -27z"/>
<path d="M2280 440 c0 -11 4 -20 9 -20 5 0 7 9 4 20 -3 11 -7 20 -9 20 -2 0
-4 -9 -4 -20z"/>
<path d="M2000 391 c0 -6 5 -13 10 -16 6 -3 10 1 10 9 0 9 -4 16 -10 16 -5 0
-10 -4 -10 -9z"/>
<path d="M2162 310 c0 -14 2 -19 5 -12 2 6 2 18 0 25 -3 6 -5 1 -5 -13z"/>
</g>
</svg>
